HIERARCHY
ROOT hip
{
  OFFSET 26.2014 78.223 14.9972
  CHANNELS 6 Xposition Yposition Zposition Zrotation Xrotation Yrotation
  JOINT abdomen
  {
    OFFSET 0 20.6881 -0.73152
    CHANNELS 3 Zrotation Xrotation Yrotation
    JOINT chest
    {
      OFFSET 0 11.7043 -0.48768
      CHANNELS 3 Zrotation Xrotation Yrotation
      JOINT neck
      {
        OFFSET 0 22.1894 -2.19456
        CHANNELS 3 Zrotation Xrotation Yrotation
        JOINT head
        {
          OFFSET -0.24384 7.07133 1.2192
          CHANNELS 3 Zrotation Xrotation Yrotation
          JOINT leftEye
          {
            OFFSET 4.14528 8.04674 8.04672
            CHANNELS 3 Zrotation Xrotation Yrotation
            End Site
            {
              OFFSET 1 0 0
            }
          }
          JOINT rightEye
          {
            OFFSET -3.6576 8.04674 8.04672
            CHANNELS 3 Zrotation Xrotation Yrotation
            End Site
            {
              OFFSET 1 0 0
            }
          }
        }
      }
      JOINT rCollar
      {
        OFFSET -2.68224 19.2634 -4.8768
        CHANNELS 3 Zrotation Xrotation Yrotation
        JOINT rShldr
        {
          OFFSET -8.77824 -1.95073 1.46304
          CHANNELS 3 Zrotation Xrotation Yrotation
          JOINT rForeArm
          {
            OFFSET -28.1742 -1.7115 0.48768
            CHANNELS 3 Zrotation Xrotation Yrotation
            JOINT rHand
            {
              OFFSET -22.5879 0.773209 7.07136
              CHANNELS 3 Zrotation Xrotation Yrotation
              JOINT rThumb1
              {
                OFFSET -1.2192 -0.487915 3.41376
                CHANNELS 3 Zrotation Xrotation Yrotation
                JOINT rThumb2
                {
                  OFFSET -3.37035 -0.52449 3.41376
                  CHANNELS 3 Zrotation Xrotation Yrotation
                  End Site
                  {
                    OFFSET -1.78271 -1.18214 1.43049
                  }
                }
              }
              JOINT rIndex1
              {
                OFFSET -7.75947 0.938293 5.60832
                CHANNELS 3 Zrotation Xrotation Yrotation
                JOINT rIndex2
                {
                  OFFSET -2.54057 -0.884171 1.56538
                  CHANNELS 3 Zrotation Xrotation Yrotation
                  End Site
                  {
                    OFFSET -1.62519 -0.234802 1.16502
                  }
                }
              }
              JOINT rMid1
              {
                OFFSET -8.24714 1.18213 3.41376
                CHANNELS 3 Zrotation Xrotation Yrotation
                JOINT rMid2
                {
                  OFFSET -3.10165 -0.590103 1.0647
                  CHANNELS 3 Zrotation Xrotation Yrotation
                  End Site
                  {
                    OFFSET -2.48547 -0.328903 0.83742
                  }
                }
              }
              JOINT rRing1
              {
                OFFSET -8.82822 0.546677 1.51678
                CHANNELS 3 Zrotation Xrotation Yrotation
                JOINT rRing2
                {
                  OFFSET -2.60934 -0.819778 -0.0198488
                  CHANNELS 3 Zrotation Xrotation Yrotation
                  End Site
                  {
                    OFFSET -2.33842 -0.294052 0.168128
                  }
                }
              }
              JOINT rPinky1
              {
                OFFSET -8.27202 -0.0477905 -0.4584
                CHANNELS 3 Zrotation Xrotation Yrotation
                JOINT rPinky2
                {
                  OFFSET -1.82734 -0.647385 -0.700984
                  CHANNELS 3 Zrotation Xrotation Yrotation
                  End Site
                  {
                    OFFSET -1.69225 -0.51767 -0.607171
                  }
                }
              }
            }
          }
        }
      }
      JOINT lCollar
      {
        OFFSET 2.68224 19.2634 -4.8768
        CHANNELS 3 Zrotation Xrotation Yrotation
        JOINT lShldr
        {
          OFFSET 8.77824 -1.95073 1.46304
          CHANNELS 3 Zrotation Xrotation Yrotation
          JOINT lForeArm
          {
            OFFSET 28.1742 -1.7115 0.48768
            CHANNELS 3 Zrotation Xrotation Yrotation
            JOINT lHand
            {
              OFFSET 22.5879 0.773209 7.07136
              CHANNELS 3 Zrotation Xrotation Yrotation
              JOINT lThumb1
              {
                OFFSET 1.2192 -0.487915 3.41376
                CHANNELS 3 Zrotation Xrotation Yrotation
                JOINT lThumb2
                {
                  OFFSET 3.37035 -0.52449 3.41376
                  CHANNELS 3 Zrotation Xrotation Yrotation
                  End Site
                  {
                    OFFSET 1.78271 -1.18214 1.43049
                  }
                }
              }
              JOINT lIndex1
              {
                OFFSET 7.75947 0.938293 5.60832
                CHANNELS 3 Zrotation Xrotation Yrotation
                JOINT lIndex2
                {
                  OFFSET 2.54057 -0.884171 1.56538
                  CHANNELS 3 Zrotation Xrotation Yrotation
                  End Site
                  {
                    OFFSET 1.62519 -0.234802 1.16502
                  }
                }
              }
              JOINT lMid1
              {
                OFFSET 8.24714 1.18213 3.41376
                CHANNELS 3 Zrotation Xrotation Yrotation
                JOINT lMid2
                {
                  OFFSET 3.10165 -0.590103 1.0647
                  CHANNELS 3 Zrotation Xrotation Yrotation
                  End Site
                  {
                    OFFSET 2.48547 -0.328903 0.83742
                  }
                }
              }
              JOINT lRing1
              {
                OFFSET 8.82822 0.546677 1.51678
                CHANNELS 3 Zrotation Xrotation Yrotation
                JOINT lRing2
                {
                  OFFSET 2.60934 -0.819778 -0.0198488
                  CHANNELS 3 Zrotation Xrotation Yrotation
                  End Site
                  {
                    OFFSET 2.33842 -0.294052 0.168128
                  }
                }
              }
              JOINT lPinky1
              {
                OFFSET 8.27202 -0.0477905 -0.4584
                CHANNELS 3 Zrotation Xrotation Yrotation
                JOINT lPinky2
                {
                  OFFSET 1.82734 -0.647385 -0.700984
                  CHANNELS 3 Zrotation Xrotation Yrotation
                  End Site
                  {
                    OFFSET 1.69225 -0.51767 -0.607171
                  }
                }
              }
            }
          }
        }
      }
    }
  }
  JOINT rButtock
  {
    OFFSET -8.77824 4.35084 1.2192
    CHANNELS 3 Zrotation Xrotation Yrotation
    JOINT rThigh
    {
      OFFSET 0 -1.70687 -2.19456
      CHANNELS 3 Zrotation Xrotation Yrotation
      JOINT rShin
      {
        OFFSET 0 -36.8199 0.73152
        CHANNELS 3 Zrotation Xrotation Yrotation
        JOINT rFoot
        {
          OFFSET 0.73152 -45.1104 -5.12064
          CHANNELS 3 Zrotation Xrotation Yrotation
          End Site
          {
            OFFSET -1.1221 -3.69964 12.103
          }
        }
      }
    }
  }
  JOINT lButtock
  {
    OFFSET 8.77824 4.35084 1.2192
    CHANNELS 3 Zrotation Xrotation Yrotation
    JOINT lThigh
    {
      OFFSET 0 -1.70687 -2.19456
      CHANNELS 3 Zrotation Xrotation Yrotation
      JOINT lShin
      {
        OFFSET 0 -36.8199 0.73152
        CHANNELS 3 Zrotation Xrotation Yrotation
        JOINT lFoot
        {
          OFFSET -0.73152 -45.1104 -5.12064
          CHANNELS 3 Zrotation Xrotation Yrotation
          End Site
          {
            OFFSET 1.1221 -3.69964 12.103
          }
        }
      }
    }
  }
}
MOTION
Frames:	5
Frame Time:	0.00833333
23.0071 84.6589 26.6841 0.422022 -0.00115498 -0.00720012 -0.555336 -0.00305886 -0.0158853 -0.153307 -0.00476083 -0.0265629 7.13715e-017 0 5.59082e-017 2.67117e-016 3.18055e-015 2.01891e-016 -0 0 0 -0 0 0 1.97487e-016 3.88251e-018 2.48481e-016 1.96232e-015 -1.55301e-016 1.39149e-015 1.5207e-014 -7.95139e-016 6.36111e-015 1.30465e-013 2.04997e-014 1.36764e-013 3.10274e-013 4.62205e-014 3.33958e-013 5.25587e-013 8.26944e-014 5.68524e-013 3.13285e-013 4.57205e-014 3.30778e-013 7.73091 5.47488 0.417314 3.09905e-013 4.6615e-014 3.33958e-013 2.90554 0.965183 0.102902 3.17366e-013 4.63168e-014 3.34753e-013 10.2786 0.731801 0.0259123 3.0096e-013 4.8901e-014 3.40319e-013 2.22167 -0.733487 -0.20892 1.29973e-018 4.65902e-018 -1.49089e-016 -3.67868e-016 5.59082e-017 1.98785e-016 9.19379e-015 6.16232e-015 2.54444e-014 1.34447e-013 8.00108e-015 1.52667e-013 3.13103e-013 3.03799e-014 3.33958e-013 5.54609e-013 5.725e-014 5.88403e-013 3.10502e-013 2.94201e-014 3.435e-013 -7.73091 5.47488 -0.417314 3.12837e-013 3.06128e-014 3.37139e-013 -2.90554 0.965183 -0.102902 3.04687e-013 3.05134e-014 3.36344e-013 -10.2786 0.731801 -0.0259123 3.13483e-013 3.02153e-014 3.30778e-013 -2.22167 -0.733487 0.20892 -2.03217e-016 0 -3.88251e-019 0.0644005 -2.35905 -0.0223809 -0.00798358 -1.27853 -0.0684573 -0.484688 3.63779 0.128966 2.03217e-016 0 3.88251e-019 -0.910379 -4.50047 0.0764533 0.00202166 2.60027 0.00927533 0.49292 1.9005 -0.0947793 
21.9865 83.2588 22.1074 -0.623769 5.64254 -3.46082 2.62795 -5.87008 -0.306245 -0.251331 -2.67939 -0.302616 3.19165 3.0749 4.74991 0.556628 -3.54387 9.20379 -0 0 0 -0 0 0 -1.24413e-013 -1.19094e-013 -1.47467e-013 -6.27041 -5.05779 -5.88316 0.334621 16.8897 -40.3914 0.488367 -15.6129 -1.91133 6.61087e-011 -1.07928e-009 -7.74738e-010 1.49389e-010 -1.87516e-009 -1.32989e-009 6.61128e-011 -1.07928e-009 -7.74742e-010 7.73091 5.47488 0.417314 6.61087e-011 -1.07928e-009 -7.7474e-010 2.90554 0.965183 0.102902 6.61153e-011 -1.07928e-009 -7.74738e-010 10.2786 0.731801 0.0259123 6.61021e-011 -1.07928e-009 -7.74733e-010 2.22167 -0.733487 -0.20892 -1.24574e-013 -1.19093e-013 -1.47805e-013 12.1317 -9.21137 -1.07798 4.5892 -2.16435 -7.07997 -0.238873 -10.8786 1.43126 -4.03626e-010 -3.00378e-012 1.26194e-010 -6.98603e-010 -3.67347e-012 2.05431e-010 -4.03629e-010 -3.00591e-012 1.26203e-010 -7.73091 5.47488 -0.417314 -4.03626e-010 -3.00425e-012 1.26198e-010 -2.90554 0.965183 -0.102902 -4.03633e-010 -3.0046e-012 1.26196e-010 -10.2786 0.731801 -0.0259123 -4.03625e-010 -3.00378e-012 1.26191e-010 -2.22167 -0.733487 0.20892 -2.03217e-016 0 -3.88251e-019 -5.83963 -3.43679 3.39753 -0.0152827 -0.171062 -0.10762 -0.115085 10.3325 -2.50777 2.03217e-016 0 3.88251e-019 -1.40348 -10.5273 -0.793636 -0.00261804 7.54069 -0.0950193 0.897617 -1.71694 4.1015 
21.9492 83.2644 22.0667 -0.979837 11.5437 -7.22994 5.93153 -12.0732 -0.616101 -0.383827 -5.50619 -0.594651 6.01105 6.25703 9.81505 2.36371 -6.99426 19.0418 -0 0 0 -0 0 0 -2.59847e-013 -2.47087e-013 -3.06169e-013 -14.0375 -10.2256 -12.2556 16.29 7.83319 -82.012 -0.312405 -32.0597 -4.46974 1.20915e-010 -2.23628e-009 -1.60549e-009 2.81923e-010 -3.88547e-009 -2.75669e-009 1.20921e-010 -2.23628e-009 -1.6055e-009 7.73091 5.47488 0.417314 1.20916e-010 -2.23628e-009 -1.6055e-009 2.90554 0.965183 0.102902 1.20921e-010 -2.23628e-009 -1.60549e-009 10.2786 0.731801 0.0259123 1.20912e-010 -2.23628e-009 -1.60549e-009 2.22167 -0.733487 -0.20892 -2.5997e-013 -2.47087e-013 -3.06442e-013 24.5595 -18.946 -2.31479 8.86445 -4.34272 -14.5977 0.14302 -22.3544 3.12641 -8.54157e-010 -3.84858e-012 2.58078e-010 -1.47818e-009 -3.29327e-012 4.19207e-010 -8.54161e-010 -3.85215e-012 2.58087e-010 -7.73091 5.47488 -0.417314 -8.54158e-010 -3.8498e-012 2.58083e-010 -2.90554 0.965183 -0.102902 -8.54164e-010 -3.85045e-012 2.58079e-010 -10.2786 0.731801 -0.0259123 -8.54156e-010 -3.8486e-012 2.58075e-010 -2.22167 -0.733487 0.20892 -2.03217e-016 0 -3.88251e-019 -11.9416 -4.55316 7.02757 -0.021293 0.985633 -0.149234 0.975932 17.3658 -5.46044 2.03217e-016 0 3.88251e-019 -2.12939 -16.896 -1.75775 0.0123338 12.7635 -0.208839 1.90259 -5.48922 8.57667 
21.944 83.261 22.0717 -0.610803 16.6783 -10.7761 8.80857 -17.6022 -0.925483 -0.525362 -8.02786 -0.86218 8.04705 8.97006 14.4091 4.97762 -9.53583 27.9779 -0 0 0 -0 0 0 -3.73635e-013 -3.5729e-013 -4.42897e-013 -21.9584 -14.5248 -18.1809 22.3489 -22.5251 -101.046 -2.85522 -46.5804 -8.04842 1.97706e-010 -3.23793e-009 -2.32488e-009 4.47115e-010 -5.62564e-009 -3.9908e-009 1.97712e-010 -3.23793e-009 -2.32489e-009 7.73091 5.47488 0.417314 1.97706e-010 -3.23793e-009 -2.32489e-009 2.90554 0.965183 0.102902 1.97711e-010 -3.23793e-009 -2.32488e-009 10.2786 0.731801 0.0259123 1.97704e-010 -3.23793e-009 -2.32488e-009 2.22167 -0.733487 -0.20892 -3.73724e-013 -3.57289e-013 -4.43118e-013 35.2424 -27.5924 -3.60241 12.1962 -6.09732 -21.3513 1.1698 -32.5465 5.004 -1.2115e-009 -9.07211e-012 3.77914e-010 -2.09692e-009 -1.11349e-011 6.15115e-010 -1.21151e-009 -9.07657e-012 3.77923e-010 -7.73091 5.47488 -0.417314 -1.2115e-009 -9.07398e-012 3.7792e-010 -2.90554 0.965183 -0.102902 -1.21151e-009 -9.07484e-012 3.77914e-010 -10.2786 0.731801 -0.0259123 -1.2115e-009 -9.07178e-012 3.77911e-010 -2.22167 -0.733487 0.20892 -2.03217e-016 0 -3.88251e-019 -17.2628 -5.52109 10.2671 -0.0253348 2.04386 -0.186098 2.61371 23.5263 -8.35771 2.03217e-016 0 3.88251e-019 -2.97923 -22.5614 -2.70004 0.0443433 17.4213 -0.315601 3.29784 -8.75124 12.6379 
21.9381 83.2568 22.051 0.054298 20.138 -13.3735 10.7452 -21.4474 -1.1995 -0.635094 -9.78742 -1.06151 9.20281 10.753 17.6732 7.30507 -10.8567 34.3053 -0 0 0 -0 0 0 -4.33307e-013 -4.23013e-013 -5.24692e-013 -28.0282 -17.2717 -22.4796 24.2982 -49.0035 -102.327 -6.6063 -56.5033 -12.2607 3.29455e-010 -3.85118e-009 -2.76586e-009 6.93949e-010 -6.69044e-009 -4.74322e-009 3.29461e-010 -3.85117e-009 -2.76587e-009 7.73091 5.47488 0.417314 3.29456e-010 -3.85118e-009 -2.76587e-009 2.90554 0.965183 0.102902 3.2946e-010 -3.85118e-009 -2.76586e-009 10.2786 0.731801 0.0259123 3.29455e-010 -3.85118e-009 -2.76586e-009 2.22167 -0.733487 -0.20892 -4.33373e-013 -4.23013e-013 -5.24891e-013 42.4145 -33.5576 -4.66878 14.2646 -7.16998 -26.088 2.40795 -39.6122 6.67953 -1.33588e-009 -2.52424e-011 4.67627e-010 -2.31356e-009 -3.95311e-011 7.66355e-010 -1.33589e-009 -2.52464e-011 4.67637e-010 -7.73091 5.47488 -0.417314 -1.33588e-009 -2.52448e-011 4.67634e-010 -2.90554 0.965183 -0.102902 -1.33589e-009 -2.52456e-011 4.67627e-010 -10.2786 0.731801 -0.0259123 -1.33588e-009 -2.52409e-011 4.67624e-010 -2.22167 -0.733487 0.20892 -2.03217e-016 0 -3.88251e-019 -20.903 -6.17981 12.506 -0.0276058 2.85592 -0.210949 4.16143 27.6866 -10.5908 2.03217e-016 0 3.88251e-019 -3.71381 -26.4862 -3.44077 0.0784419 20.6668 -0.393824 4.54294 -10.9375 15.5134 
